<?xml version="1.0" standalone="no"?>
<!DOCTYPE svg PUBLIC "-//W3C//DTD SVG 20010904//EN"
 "http://www.w3.org/TR/2001/REC-SVG-20010904/DTD/svg10.dtd">
<svg version="1.0" xmlns="http://www.w3.org/2000/svg"
 width="960.000000pt" height="960.000000pt" viewBox="0 0 960.000000 960.000000"
 preserveAspectRatio="xMidYMid meet">
<metadata>
Created by potrace 1.14, written by Peter Selinger 2001-2017
</metadata>
<g transform="translate(0.000000,960.000000) scale(0.100000,-0.100000)"
fill="#000000" stroke="none">
<path d="M0 4800 l0 -4800 4800 0 4800 0 0 4800 0 4800 -4800 0 -4800 0 0
-4800z m8118 4282 c15 -26 31 -42 42 -42 20 0 60 -44 60 -66 0 -7 21 -43 46
-81 25 -37 57 -90 70 -116 33 -64 104 -228 104 -239 0 -5 13 -28 29 -51 15
-23 32 -53 36 -67 4 -14 31 -72 61 -130 29 -58 56 -118 60 -135 4 -16 22 -59
40 -94 19 -35 34 -69 34 -75 0 -5 14 -24 31 -42 30 -31 59 -112 63 -174 0 -14
16 -49 34 -78 17 -29 32 -56 32 -61 0 -5 6 -14 14 -20 8 -7 18 -31 21 -54 4
-23 16 -60 27 -81 16 -31 19 -51 14 -90 -3 -27 -1 -55 4 -61 18 -21 70 -157
64 -167 -3 -5 0 -15 6 -24 7 -8 18 -38 26 -67 7 -28 24 -96 38 -150 15 -53 31
-141 36 -194 5 -52 14 -101 19 -106 6 -6 11 -19 11 -29 0 -9 9 -35 21 -57 15
-29 20 -57 19 -103 -2 -88 14 -244 27 -260 6 -7 13 -49 16 -93 4 -44 11 -123
16 -175 8 -72 25 -659 23 -750 -1 -8 -6 -35 -13 -60 -6 -25 -12 -119 -14 -210
-2 -151 -4 -171 -29 -233 -39 -100 -66 -210 -66 -267 0 -28 -6 -65 -13 -83 -8
-18 -17 -56 -21 -86 -4 -30 -14 -67 -22 -82 -7 -15 -14 -39 -14 -52 0 -13 -11
-38 -24 -56 -14 -19 -28 -47 -32 -64 -6 -30 -37 -93 -54 -111 -5 -5 -2 -27 7
-49 l16 -40 -29 -27 c-52 -47 -118 -155 -154 -253 -12 -31 -37 -73 -56 -93
-25 -27 -32 -42 -28 -59 4 -15 -3 -36 -19 -61 -14 -22 -30 -63 -36 -93 -8 -37
-30 -82 -66 -137 -29 -45 -66 -106 -81 -135 -15 -30 -44 -74 -64 -99 -20 -25
-49 -67 -65 -95 -16 -27 -56 -93 -90 -145 -85 -131 -97 -156 -90 -189 4 -19 1
-32 -10 -41 -8 -7 -15 -21 -15 -30 0 -10 -34 -47 -77 -83 -43 -36 -109 -102
-148 -147 -170 -199 -239 -269 -278 -283 -9 -4 -22 -18 -27 -33 -14 -35 -54
-66 -106 -81 -23 -7 -59 -29 -80 -49 -22 -20 -64 -49 -95 -64 -33 -17 -95 -66
-150 -119 -60 -58 -102 -91 -116 -91 -38 0 -74 -19 -132 -69 -31 -27 -85 -67
-121 -90 -69 -45 -99 -76 -100 -103 0 -20 -77 -68 -107 -68 -12 0 -23 -8 -26
-19 -3 -14 -17 -21 -53 -26 -27 -4 -56 -13 -64 -20 -8 -7 -37 -20 -65 -30 -50
-17 -68 -25 -157 -65 -32 -15 -57 -20 -77 -15 -16 3 -32 2 -35 -4 -18 -28
-103 -71 -178 -90 -130 -33 -214 -57 -328 -96 -58 -19 -118 -35 -133 -35 -40
0 -180 -37 -247 -65 -30 -13 -93 -29 -140 -36 -64 -9 -91 -18 -111 -36 -22
-20 -35 -23 -107 -23 -57 0 -103 -7 -159 -24 -93 -29 -212 -42 -241 -27 -14 7
-98 7 -283 0 -195 -8 -302 -8 -409 0 -80 7 -156 12 -170 13 -160 5 -593 75
-750 122 -25 7 -81 21 -125 31 -79 17 -311 85 -495 145 -66 22 -105 29 -130
25 -28 -4 -46 1 -93 30 -32 19 -61 35 -64 35 -4 0 -25 9 -47 19 -50 23 -115
51 -176 75 -25 10 -82 35 -126 57 -45 21 -86 39 -91 39 -6 0 -44 13 -84 30
-41 16 -108 38 -150 49 -42 11 -104 33 -138 50 -33 17 -67 31 -74 31 -8 0 -21
8 -30 18 -13 14 -14 21 -5 30 16 16 -49 77 -127 119 -33 17 -73 46 -90 63 -39
42 -139 111 -192 134 -23 10 -54 32 -68 47 -14 16 -32 29 -40 29 -20 0 -57 38
-50 51 4 5 16 7 28 3 20 -6 20 -5 8 10 -8 9 -20 15 -27 12 -6 -2 -14 5 -17 16
-4 13 -11 19 -21 15 -20 -8 -36 14 -40 57 -1 20 -10 44 -19 53 -15 16 -18 15
-41 -6 -27 -25 -46 -21 -46 9 0 39 55 50 125 25 38 -14 41 -13 65 10 26 25 92
35 104 16 3 -4 21 -11 41 -14 19 -3 72 -28 117 -56 45 -28 92 -51 104 -51 13
0 25 -4 28 -9 3 -4 31 -11 61 -15 66 -7 111 -36 131 -85 8 -18 14 -37 14 -41
0 -13 -32 -21 -44 -11 -6 5 -38 17 -71 26 -33 10 -67 23 -75 30 -8 7 -42 16
-74 20 -33 4 -71 15 -86 26 -25 19 -60 18 -60 -1 0 -5 12 -22 26 -39 28 -33
84 -54 121 -45 15 4 31 0 41 -9 9 -8 45 -29 79 -47 35 -17 63 -35 63 -40 0 -5
14 -22 31 -39 22 -22 40 -31 64 -31 29 0 37 6 60 46 25 42 25 47 11 63 -21 23
-20 36 5 70 23 32 19 51 -12 51 -16 0 -19 4 -13 23 3 12 11 28 16 35 12 14 54
16 62 3 3 -5 23 -3 43 5 21 7 48 13 60 14 12 0 32 11 45 25 66 71 582 116 781
68 58 -13 72 -22 99 -55 42 -54 30 -65 -59 -51 -37 6 -88 12 -112 13 -24 0
-52 5 -61 10 -9 5 -39 7 -66 4 -27 -3 -76 -8 -109 -10 -33 -3 -74 -12 -92 -20
-17 -8 -46 -14 -65 -14 -48 0 -183 -34 -213 -54 -14 -9 -29 -25 -33 -36 -4
-10 -35 -44 -70 -75 -61 -56 -77 -90 -48 -101 20 -8 28 -34 15 -50 -9 -11 -5
-16 16 -26 22 -10 28 -9 36 3 8 10 9 8 4 -8 -6 -20 -3 -23 24 -23 24 0 31 -4
31 -20 0 -24 104 -128 136 -136 25 -6 32 -28 14 -39 -17 -11 9 -35 37 -35 13
0 34 -5 46 -12 34 -18 100 -27 119 -17 22 12 24 62 3 79 -10 8 -26 9 -52 3
-76 -18 -160 40 -131 91 5 10 5 23 -2 35 -12 23 2 62 38 100 12 13 22 29 22
36 0 27 137 63 171 44 33 -17 21 -30 -21 -23 -24 4 -40 3 -40 -3 0 -6 -13 -13
-30 -16 -39 -8 -39 -35 -1 -48 26 -9 41 -29 55 -72 5 -17 36 -25 36 -8 0 5 13
14 29 21 22 9 34 9 51 0 16 -9 25 -9 33 -1 16 16 77 14 83 -3 5 -12 12 -11 40
6 28 16 32 23 23 34 -9 11 -8 14 5 14 9 0 16 -5 16 -12 0 -6 10 -2 21 11 17
18 20 30 15 62 -7 43 6 79 29 79 19 0 31 40 14 51 -7 4 -26 5 -41 2 -31 -6
-34 1 -18 41 8 23 15 26 55 26 38 0 47 -4 62 -27 9 -16 24 -34 32 -42 12 -10
13 -14 4 -18 -15 -6 -17 -29 -3 -38 5 -3 20 -3 34 1 21 5 24 9 16 24 -14 26
-14 27 21 34 22 4 34 14 42 36 15 38 37 39 37 1 0 -43 26 -47 74 -12 47 33 50
42 19 56 -32 14 -29 20 19 45 29 15 59 22 99 21 49 0 59 3 63 20 4 10 9 28 12
39 4 14 1 20 -10 20 -9 0 -16 4 -16 9 0 13 29 22 54 15 14 -3 27 1 35 10 10
12 23 14 52 10 42 -7 48 0 24 26 -14 15 -13 19 4 34 11 10 43 21 73 25 29 4
71 17 93 28 53 28 104 37 194 35 60 -2 92 4 160 27 107 36 135 43 155 35 22
-9 2 -44 -26 -44 -15 0 -19 -5 -15 -20 3 -10 0 -23 -7 -28 -15 -12 -133 -35
-175 -34 -18 1 -46 -5 -62 -13 -15 -8 -37 -15 -47 -15 -11 0 -25 -7 -32 -15
-18 -21 -130 -21 -130 0 0 10 -11 15 -35 15 -41 0 -47 -20 -12 -45 22 -17 22
-17 -8 -10 -83 18 -82 18 -114 -15 -37 -39 -38 -47 -8 -55 12 -3 39 -13 59
-22 35 -15 41 -15 77 2 22 10 48 14 59 11 12 -4 34 -1 49 7 37 19 150 30 159
16 7 -12 40 -8 118 12 44 12 50 11 62 -6 13 -18 15 -18 56 1 54 24 132 73 179
113 20 17 39 31 43 31 3 0 33 13 67 29 33 17 80 33 104 37 35 5 46 11 52 31 7
19 23 29 67 44 33 11 69 18 82 15 17 -5 24 -1 29 14 3 11 27 32 53 47 26 14
54 32 62 39 23 20 140 54 184 54 22 0 58 11 87 26 42 24 52 25 77 15 38 -16
82 -17 109 -3 31 17 94 11 115 -10 15 -15 15 -18 2 -18 -8 0 -32 -9 -52 -19
-54 -29 -128 -51 -200 -62 -35 -4 -80 -13 -100 -19 -20 -5 -50 -10 -65 -10
-34 0 -46 -26 -21 -45 13 -9 38 -12 90 -8 70 6 71 5 78 -21 9 -38 38 -33 67
12 22 33 29 37 73 40 53 3 109 -14 103 -32 -2 -6 -23 -17 -47 -25 l-44 -14 34
-29 c19 -15 42 -28 52 -28 24 0 33 -19 11 -26 -10 -3 -28 -10 -40 -16 -15 -7
-41 -7 -87 3 -51 10 -69 10 -78 1 -17 -17 -58 -15 -82 6 -20 16 -20 16 -7 0
11 -15 11 -21 0 -34 -23 -27 -67 -44 -117 -44 -36 0 -57 -6 -78 -22 -24 -20
-42 -23 -119 -25 -113 -2 -105 -1 -99 -16 8 -21 -16 -34 -71 -40 -74 -7 -124
-23 -149 -46 -12 -12 -30 -21 -38 -21 -9 0 -29 -10 -45 -23 -15 -13 -45 -33
-65 -45 -22 -14 -49 -44 -66 -76 -20 -35 -41 -57 -61 -66 -17 -6 -33 -21 -37
-32 -4 -15 -12 -18 -27 -14 -12 4 -50 9 -84 12 -60 5 -63 5 -75 -20 -10 -23
-9 -29 8 -42 13 -11 15 -17 7 -20 -26 -11 -14 -34 17 -34 31 0 39 -17 19 -37
-18 -18 -1 -32 34 -26 30 4 57 -5 138 -47 20 -10 39 6 39 32 0 20 26 25 32 6
4 -10 10 -10 31 -1 32 15 35 38 6 53 -35 19 -13 23 54 10 61 -12 68 -12 121
10 52 21 66 22 172 16 113 -7 116 -7 155 18 21 15 39 33 39 41 0 30 60 56 125
53 59 -2 60 -1 65 27 4 21 16 36 45 52 40 22 58 22 49 -1 -6 -16 21 -40 36
-31 5 3 10 23 10 43 l0 36 24 -32 c15 -21 22 -41 18 -57 -2 -14 1 -32 8 -40 8
-10 9 -15 2 -15 -6 0 -14 5 -17 10 -4 6 -12 10 -18 8 -7 -1 -31 2 -54 6 -47 9
-106 0 -97 -15 3 -5 -7 -14 -23 -20 l-27 -10 49 -29 c45 -26 51 -28 67 -13 9
8 37 18 61 20 38 5 47 1 77 -26 19 -17 38 -31 43 -31 4 0 3 -9 -3 -19 -15 -28
-13 -39 10 -51 15 -8 27 -7 50 5 26 14 29 18 19 36 -18 34 -4 49 45 49 27 0
51 6 60 16 21 20 20 27 -4 49 -11 10 -20 26 -20 35 0 26 49 70 78 70 29 0 20
15 -13 22 l-20 5 20 7 c62 23 65 26 61 48 -3 13 -7 35 -10 50 -10 45 -98 63
-157 32 -35 -18 -59 -13 -59 13 -1 14 -8 10 -30 -17 -23 -26 -33 -31 -42 -22
-8 8 -8 15 2 27 7 8 17 15 22 15 21 0 68 45 68 66 0 28 -25 54 -51 54 -25 0
-25 16 0 30 25 13 101 13 101 0 0 -19 21 -10 55 25 28 28 35 42 35 74 0 34 5
42 34 60 22 14 36 31 40 51 3 17 28 54 56 84 31 33 50 62 50 77 0 13 9 35 19
48 17 22 23 23 71 18 29 -4 60 -2 70 3 22 12 32 48 16 58 -24 14 -28 43 -6 49
10 3 22 14 25 24 5 14 16 19 40 19 18 0 35 -4 37 -8 2 -5 15 -12 30 -15 19 -5
34 -1 55 16 46 36 68 46 84 36 8 -5 23 -9 35 -9 11 0 30 -9 41 -19 l21 -20 4
45 c2 35 0 44 -13 44 -9 0 -22 -7 -29 -15 -18 -21 -51 -19 -57 4 -3 11 -14 21
-25 23 -17 3 -17 5 -6 21 11 14 35 21 97 28 46 5 91 14 101 19 10 6 32 10 49
10 17 0 38 8 48 18 25 26 122 96 160 115 18 10 48 17 68 17 36 0 95 -24 95
-38 0 -4 -26 -19 -57 -34 -32 -15 -71 -41 -86 -58 -16 -16 -41 -33 -55 -36
-55 -12 -142 -49 -142 -60 0 -6 7 -17 16 -24 32 -27 37 -50 18 -86 -16 -30
-23 -34 -59 -34 -49 0 -258 -99 -323 -154 -24 -20 -47 -36 -51 -36 -21 0 -51
-44 -51 -74 0 -29 -5 -36 -32 -45 -40 -14 -134 -114 -149 -158 -11 -33 -17
-37 -82 -48 -31 -5 -37 -9 -31 -23 4 -9 9 -29 12 -45 4 -28 10 -31 50 -27 27
2 64 -29 98 -82 15 -23 35 -40 52 -44 15 -4 39 -13 53 -20 24 -12 28 -11 47
11 26 29 19 53 -17 62 -33 8 -42 22 -30 45 15 28 28 22 84 -38 47 -50 54 -54
68 -40 9 9 19 16 22 16 4 0 18 9 33 20 20 16 27 18 34 8 8 -10 11 -10 15 2 4
8 19 26 35 40 69 61 142 143 188 211 15 24 46 55 67 69 21 14 42 36 48 48 5
12 16 22 23 22 7 0 17 11 22 25 5 14 14 25 19 25 5 0 33 20 61 44 29 25 66 48
82 51 20 5 43 25 76 71 39 53 54 66 89 75 23 6 49 20 59 30 9 10 22 19 27 19
18 0 161 74 179 92 10 10 30 18 46 18 35 0 169 72 206 112 28 29 30 30 43 12
17 -24 17 -28 -7 -49 -11 -10 -20 -24 -20 -31 0 -8 -22 -23 -49 -34 -53 -23
-84 -66 -56 -77 9 -3 23 1 33 10 9 8 37 23 62 32 25 10 53 26 62 37 12 13 36
20 83 25 46 4 63 9 56 16 -14 14 -14 54 -1 62 25 16 -6 25 -63 19 -70 -7 -89
5 -101 62 -7 31 -5 32 40 48 34 11 50 13 55 5 3 -6 15 -9 25 -7 14 2 21 15 25
46 5 43 32 89 60 103 148 75 159 80 177 70 15 -8 24 -5 40 14 12 14 28 25 35
25 30 0 119 135 110 168 -2 11 0 30 7 42 11 21 21 22 61 5 23 -9 57 29 69 76
6 20 17 40 25 43 23 9 18 24 -14 40 -28 15 -31 14 -90 -24 -38 -25 -61 -46
-61 -58 0 -26 -20 -42 -51 -42 -35 0 -53 23 -45 56 8 32 -1 64 -19 64 -7 0
-35 23 -61 50 -26 28 -51 50 -57 50 -5 0 -16 -9 -25 -21 -20 -23 -48 -18 -57
11 -4 13 -18 20 -43 22 -33 3 -37 6 -40 33 -2 22 6 39 28 62 16 18 30 40 30
50 0 29 36 80 67 95 21 10 30 24 37 53 11 52 12 53 46 100 l29 40 -20 18 c-12
9 -28 17 -36 17 -10 0 -13 6 -8 18 12 31 10 37 -12 36 -28 -1 -28 0 -1 26 19
18 20 22 8 34 -23 22 -74 23 -94 3 -10 -9 -24 -17 -31 -17 -8 0 -33 -27 -55
-60 -37 -55 -52 -65 -87 -61 -6 1 -9 -6 -7 -16 3 -11 -9 -34 -30 -58 -20 -22
-36 -44 -36 -49 0 -15 -43 -96 -51 -96 -5 0 -14 6 -21 13 -10 11 -18 8 -46
-20 -39 -39 -36 -70 6 -79 15 -3 35 -9 44 -15 10 -5 24 -9 32 -9 19 0 32 -19
40 -56 6 -29 4 -32 -21 -38 -43 -11 -93 -64 -93 -99 0 -46 -29 -95 -75 -127
-23 -16 -70 -61 -104 -99 -54 -61 -68 -71 -96 -71 -21 0 -35 6 -39 16 -7 18
18 64 34 64 5 0 19 18 31 40 16 28 37 47 70 63 54 25 59 36 59 128 0 37 7 83
16 104 8 21 14 50 12 65 -1 15 3 34 10 42 6 8 19 34 27 58 8 24 35 64 59 90
24 26 54 66 66 89 11 23 27 44 35 47 7 3 18 19 24 35 6 19 17 29 30 29 12 0
23 9 27 23 4 12 17 36 30 53 13 17 24 36 24 42 0 14 77 72 95 72 12 0 66 56
113 119 30 40 46 30 38 -22 -5 -28 -2 -45 8 -56 18 -21 4 -61 -24 -68 -11 -3
-20 -11 -20 -18 0 -9 22 -14 68 -17 52 -4 77 -1 110 14 38 17 43 22 38 43 -5
20 -1 27 24 40 23 12 30 22 30 46 0 22 6 32 25 39 14 5 28 17 32 26 3 9 18 22
32 28 54 25 87 50 109 84 12 19 20 37 17 40 -3 4 -23 6 -43 7 -32 0 -37 3 -40
26 -4 31 28 49 76 42 27 -5 32 -2 32 16 0 11 -5 21 -10 21 -6 0 -15 11 -20 25
-10 26 -28 26 -60 0 -8 -7 -39 -15 -68 -18 -58 -7 -122 -47 -122 -78 0 -22 14
-31 60 -39 43 -7 51 -36 21 -79 -12 -16 -21 -39 -21 -50 0 -28 -45 -47 -77
-32 -34 16 -38 36 -14 76 12 20 21 40 21 45 0 5 -28 10 -62 12 l-63 3 38 18
c48 23 66 57 47 92 -7 14 -11 27 -9 29 2 2 35 31 74 65 78 69 112 78 139 37
11 -17 22 -23 36 -19 26 7 26 29 0 43 -13 7 -20 21 -20 39 0 28 28 146 51 211
7 19 13 41 15 48 2 6 15 12 29 12 35 0 35 -37 0 -50 -23 -9 -24 -12 -13 -32 7
-13 19 -27 26 -31 21 -14 13 -46 -15 -60 l-27 -14 22 -12 c12 -6 22 -17 22
-23 0 -14 30 -48 43 -48 5 0 7 14 3 33 -5 26 -2 38 14 52 11 10 20 27 20 38 0
10 14 32 30 47 17 15 30 31 30 34 0 3 11 30 25 60 14 30 25 63 25 73 0 20 45
70 108 121 32 25 40 38 40 62 -2 50 16 57 57 25 32 -24 39 -26 51 -13 13 13
12 18 -6 41 -15 18 -19 34 -14 52 6 26 7 26 21 5 9 -12 25 -20 44 -20 29 0 30
1 23 34 -4 23 -1 46 10 67 9 18 16 36 16 42 0 5 12 22 28 38 15 16 37 40 49
54 24 27 68 34 76 12 7 -20 -17 -82 -47 -117 -14 -17 -26 -37 -27 -43 0 -7 -2
-32 -4 -56 -4 -54 -53 -111 -97 -111 -21 0 -29 -6 -34 -25 -8 -33 2 -59 21
-51 8 3 22 9 30 12 19 8 20 -16 2 -41 -13 -17 -16 -17 -61 -2 l-46 16 -50 -49
c-28 -27 -50 -55 -50 -62 0 -7 -16 -42 -35 -78 -20 -36 -46 -89 -60 -118 -13
-29 -39 -73 -56 -97 -28 -39 -31 -48 -21 -70 7 -14 20 -25 31 -25 24 0 45 34
36 57 -8 21 52 83 80 83 27 0 96 75 100 107 1 13 10 32 19 42 9 9 16 27 16 39
0 21 24 52 40 52 26 0 40 -15 40 -44 0 -17 7 -42 16 -55 15 -22 15 -26 -5 -66
-11 -23 -21 -47 -21 -53 0 -25 -24 -62 -40 -62 -37 0 -89 -31 -110 -66 -45
-71 -64 -82 -146 -79 -69 2 -75 1 -91 -24 -9 -14 -16 -34 -15 -45 0 -10 -6
-28 -14 -41 -8 -12 -12 -29 -8 -38 3 -9 -4 -25 -16 -37 -12 -12 -19 -24 -16
-27 9 -9 94 35 109 57 11 16 21 19 40 15 20 -5 29 -1 42 19 10 14 14 33 11 42
-18 46 33 89 85 74 39 -11 70 -5 63 14 -9 24 33 49 71 43 51 -8 62 5 80 102 5
27 22 42 82 71 43 22 47 30 70 168 3 18 15 39 26 47 18 12 46 78 47 108 0 17
-29 5 -53 -23 -51 -57 -96 -27 -78 51 5 23 18 54 29 68 11 15 28 44 40 66 11
22 30 49 42 60 31 28 63 94 57 116 -3 11 2 34 10 51 15 28 15 32 -1 43 -10 8
-16 27 -16 53 0 32 4 42 21 47 11 4 24 18 29 31 11 27 18 29 43 9 17 -12 17
-18 8 -48 -15 -45 -12 -55 25 -88 34 -32 78 -46 97 -31 6 5 28 12 49 16 56 10
89 76 53 106 -14 11 -14 15 0 36 14 21 13 24 -12 43 -14 12 -29 21 -33 21 -4
0 -10 9 -13 20 -4 15 5 31 29 55 38 39 41 45 18 45 -9 0 -27 9 -41 20 -14 11
-34 20 -44 20 -27 0 -49 11 -49 25 0 8 21 15 59 20 37 4 62 12 65 21 4 9 14
12 34 8 18 -4 32 -1 40 8 13 16 17 93 7 125 -6 18 -2 24 18 32 14 5 28 15 32
20 10 18 39 13 53 -9 13 -21 42 -28 42 -10 0 6 -4 10 -10 10 -5 0 -10 15 -10
34 0 26 -7 39 -27 54 -26 19 -26 22 -15 58 7 24 8 42 2 48 -5 5 -6 22 -3 37 6
30 -2 35 -49 31 -31 -3 -19 17 15 26 31 8 32 9 30 63 -1 56 -4 69 -30 131 -9
21 -13 48 -9 62 3 14 2 27 -3 30 -5 3 -12 18 -16 33 -3 16 -14 36 -22 46 -13
14 -14 22 -5 43 18 38 15 55 -15 87 -16 15 -29 40 -30 55 -2 41 -18 104 -32
131 -8 13 -14 58 -15 100 -1 94 -8 105 -52 96 -19 -3 -34 -2 -34 3 0 13 -45
21 -63 10 -17 -9 -12 -48 7 -48 23 -1 87 -67 80 -84 -7 -19 -44 -22 -44 -2 0
7 -6 18 -12 24 -10 8 -13 5 -14 -11 0 -12 -2 -29 -5 -37 -3 -11 5 -16 28 -18
30 -3 34 -7 39 -42 5 -30 13 -41 35 -50 16 -7 29 -14 29 -16 0 -2 -14 -24 -32
-49 -32 -45 -32 -57 0 -60 45 -3 57 -42 20 -67 -19 -13 -20 -18 -10 -46 7 -19
7 -34 1 -37 -5 -4 -9 -16 -9 -28 0 -25 47 -51 74 -41 9 3 16 1 16 -5 0 -11
-19 -15 -57 -12 -13 1 -33 -4 -45 -10 l-22 -12 22 -17 c42 -34 18 -105 -27
-80 -12 6 -21 20 -21 30 0 11 -9 25 -20 32 -11 7 -20 18 -20 25 0 20 -51 53
-82 53 -20 0 -31 -6 -38 -22 -5 -14 -9 -17 -10 -8 -1 10 -4 9 -10 -5 -8 -19
-9 -19 -11 3 -3 36 -4 40 -11 48 -13 12 -9 23 12 34 15 8 26 7 45 -6 30 -19
43 -11 51 30 6 37 -20 45 -52 16 -23 -23 -24 -23 -24 -3 0 25 36 110 60 139
21 28 26 111 7 133 -8 9 -20 41 -27 71 -7 30 -21 63 -31 73 -10 10 -22 30 -25
45 -4 15 -15 38 -26 51 -23 30 -23 52 2 103 24 49 26 87 5 102 -8 6 -17 34
-20 61 -16 135 -30 199 -49 228 -61 91 -91 157 -70 157 4 0 39 -33 78 -72 100
-101 103 -103 110 -72 4 14 0 37 -9 54 -8 16 -15 35 -15 43 0 22 -30 43 -88
62 -29 9 -66 28 -82 41 -27 23 -29 29 -24 77 5 41 12 57 35 78 36 31 36 37 3
49 -22 9 -26 15 -21 39 4 21 0 36 -13 52 -11 12 -20 36 -20 52 0 17 -6 38 -14
46 -8 9 -26 40 -41 69 -15 29 -31 55 -36 58 -13 8 -58 78 -92 144 -15 30 -36
64 -46 75 -52 56 -89 176 -58 188 25 11 42 1 65 -41z m42 -536 c5 -13 15 -26
22 -28 19 -7 20 -198 1 -198 -7 0 -13 5 -13 10 0 6 -11 10 -23 10 -25 0 -83
25 -92 40 -4 6 35 22 55 22 17 -1 20 32 5 48 -13 14 -16 29 -12 56 10 61 40
83 57 40z m-117 -247 c16 -7 31 -8 43 -1 23 11 84 -4 84 -21 -1 -18 -45 -92
-56 -92 -5 0 -11 11 -12 25 -4 28 -28 49 -56 50 -10 0 -25 8 -32 18 -25 33
-14 41 29 21z m191 -482 c3 -12 -1 -40 -9 -62 -8 -24 -14 -32 -15 -19 0 11 -4
24 -10 30 -6 6 -6 21 2 42 15 38 24 40 32 9z m16 -206 c0 -5 -6 -14 -14 -20
-17 -14 -41 11 -32 34 4 13 10 14 26 5 11 -6 20 -14 20 -19z m-60 -97 c0 -17
-22 -14 -28 4 -2 7 3 12 12 12 9 0 16 -7 16 -16z m38 -122 c5 -16 -21 -15 -36
0 -7 7 -12 18 -12 26 0 12 3 12 22 0 12 -8 24 -20 26 -26z m206 -18 c23 -9 20
-24 -4 -24 -11 0 -20 7 -20 15 0 17 2 18 24 9z m72 -161 c-5 -12 -9 -13 -21
-3 -20 17 -19 48 3 52 18 4 28 -22 18 -49z m-211 37 c10 -16 -5 -70 -20 -70
-13 0 -29 56 -19 71 7 12 31 11 39 -1z m87 -44 c-2 -10 7 -32 20 -49 25 -33
26 -67 3 -67 -14 0 -29 38 -40 104 -5 29 -3 37 7 34 7 -3 12 -13 10 -22z m86
-227 c3 -31 3 -35 0 -99 l-3 -55 52 0 c40 0 57 -5 73 -21 19 -19 20 -26 11
-107 -10 -86 -24 -118 -49 -109 -6 2 -12 -4 -12 -13 0 -12 7 -16 28 -13 23 3
27 -1 30 -24 2 -19 -3 -31 -17 -40 -23 -14 -27 -39 -10 -69 15 -28 4 -51 -33
-72 l-33 -19 -23 28 c-26 29 -25 21 -9 173 3 37 -26 49 -67 27 l-33 -18 -46
35 -46 35 25 23 c23 21 25 22 37 5 8 -10 26 -20 41 -21 16 -2 33 -8 39 -14 19
-19 37 -12 37 13 0 18 -7 25 -30 30 -26 5 -30 10 -30 37 0 19 -10 43 -26 62
-22 26 -25 38 -20 74 5 39 3 43 -22 55 -33 16 -39 48 -13 72 18 16 21 16 44 1
33 -21 77 -3 77 32 0 32 24 25 28 -8z m427 -229 c3 -6 -5 -10 -19 -10 -14 0
-28 5 -31 10 -3 6 5 10 19 10 14 0 28 -4 31 -10z m-701 -46 c7 -27 1 -44 -15
-44 -6 0 -7 5 -4 10 3 6 0 13 -9 16 -16 6 -29 32 -21 44 10 16 43 -2 49 -26z
m576 -29 c46 -16 68 -54 52 -89 -9 -20 -19 -26 -42 -26 -20 0 -30 -5 -30 -15
0 -8 6 -15 14 -15 9 0 17 -25 26 -77 7 -43 18 -91 25 -108 10 -25 9 -37 -6
-70 -24 -53 -24 -62 6 -69 17 -4 25 -13 25 -28 0 -17 -3 -19 -12 -10 -7 7 -22
12 -35 12 -18 0 -23 6 -23 25 0 49 -41 21 -46 -31 -4 -47 -25 -64 -79 -64 -49
0 -58 6 -45 31 8 15 4 19 -25 29 -19 6 -37 15 -40 20 -7 12 33 92 51 103 8 4
14 14 14 22 0 8 13 21 28 29 30 16 47 43 57 94 4 17 12 32 18 32 9 0 9 2 1 8
-12 7 -37 199 -28 214 5 8 34 3 94 -17z m-5689 -28 c53 -14 130 -41 171 -60
l74 -34 12 -199 c17 -273 17 -266 -10 -262 -17 2 -47 43 -123 164 -108 176
-133 201 -251 249 -86 36 -209 35 -282 -1 -90 -45 -142 -132 -142 -237 0 -149
67 -216 370 -366 252 -125 360 -201 431 -299 62 -87 83 -169 77 -305 -6 -132
-26 -193 -92 -281 -90 -118 -234 -209 -403 -252 -181 -46 -450 -30 -648 38
-143 49 -183 72 -189 110 -10 60 -28 437 -22 447 7 10 24 10 42 -1 6 -4 55
-84 110 -179 95 -165 102 -174 159 -211 229 -147 551 -99 620 92 20 53 22 148
5 209 -8 31 -28 60 -65 97 -46 46 -88 70 -307 178 -266 131 -336 177 -414 273
-86 105 -117 273 -76 410 57 185 235 351 452 421 94 30 101 31 260 27 115 -2
165 -8 241 -28z m1519 -17 c0 -17 -24 -32 -117 -77 -65 -30 -121 -61 -125 -67
-10 -15 -10 -756 -1 -756 10 0 773 763 773 772 0 4 -45 30 -100 58 -76 38
-100 55 -100 70 0 20 7 20 334 20 270 0 335 -3 339 -13 8 -22 -3 -30 -100 -72
l-93 -40 -329 -318 -330 -318 87 -109 c48 -60 227 -284 397 -498 l310 -389
103 -43 c89 -37 102 -45 102 -66 l0 -24 -317 0 -318 0 -252 318 c-139 174
-308 388 -377 475 -69 86 -127 154 -129 150 -3 -5 -5 -180 -6 -391 l-1 -383
125 -61 c107 -52 125 -65 125 -85 l0 -23 -460 0 -460 0 0 26 c0 23 12 31 120
81 l120 57 0 785 -1 786 -119 57 c-96 45 -120 61 -120 77 0 21 2 21 460 21
457 0 460 0 460 -20z m3550 -29 c0 -6 -4 -13 -10 -16 -5 -3 -10 1 -10 9 0 9 5
16 10 16 6 0 10 -4 10 -9z m124 -92 c33 -39 33 -45 -2 -63 -24 -12 -28 -20
-24 -45 5 -37 6 -37 39 -11 34 26 89 27 103 1 19 -36 12 -86 -16 -112 -14 -13
-32 -39 -39 -56 -8 -18 -20 -33 -28 -33 -17 0 -40 47 -27 55 15 9 12 41 -6 56
-12 10 -20 10 -35 1 -46 -29 -67 -7 -85 86 -7 37 -16 79 -20 95 -5 22 -3 27
12 29 11 0 24 2 31 2 7 1 18 7 25 14 20 20 45 14 72 -19z m-165 -435 c-15 -19
-35 -18 -43 3 -9 22 13 34 37 22 14 -8 16 -13 6 -25z m-128 -75 c0 -39 70 -70
100 -43 9 8 29 14 45 12 41 -5 48 -43 19 -106 -29 -63 -69 -95 -107 -87 -33 8
-46 -12 -29 -44 18 -33 -3 -58 -45 -53 -21 3 -34 10 -34 18 0 8 -11 19 -24 25
-20 9 -22 15 -15 38 45 140 48 155 38 167 -7 9 -7 19 0 33 6 11 11 38 11 61 0
23 5 51 12 63 11 21 13 20 21 -18 5 -22 8 -52 8 -66z m430 71 c24 -13 25 -61
3 -138 -20 -68 -31 -84 -55 -77 -9 3 -20 1 -24 -5 -4 -6 7 -10 28 -10 58 0 55
-30 -7 -78 -32 -24 -71 -29 -78 -9 -6 16 19 77 32 77 6 0 10 5 10 11 0 5 -4 7
-10 4 -14 -9 -13 4 10 71 11 32 20 69 20 82 0 26 17 63 34 74 14 10 14 10 37
-2z m139 -52 c0 -10 -4 -18 -10 -18 -5 0 -10 -13 -10 -29 0 -36 -15 -48 -29
-23 -18 34 21 131 40 100 5 -7 9 -21 9 -30z m121 -58 c10 0 19 -4 19 -10 0 -5
-5 -10 -12 -10 -6 0 -23 -14 -38 -32 -30 -36 -61 -32 -35 5 8 12 15 30 15 40
0 13 5 17 16 13 9 -3 24 -6 35 -6z m159 -120 c12 -7 12 -12 -4 -29 -20 -22
-46 -18 -46 8 0 31 21 40 50 21z m-935 -144 c10 -15 14 -33 9 -49 -3 -16 0
-39 10 -58 20 -40 20 -39 -4 -39 -11 0 -20 -7 -20 -15 0 -9 6 -15 13 -14 20 3
47 -12 47 -26 0 -13 -8 -17 -62 -29 -22 -5 -28 -3 -30 11 0 10 -2 23 -2 30 -2
23 -49 63 -68 57 -10 -3 -18 0 -18 6 0 31 80 150 101 150 5 0 16 -11 24 -24z
m125 -43 c0 -5 -5 -15 -10 -23 -8 -12 -10 -11 -10 8 0 12 5 22 10 22 6 0 10
-3 10 -7z m-181 -292 c-15 -5 -22 6 -14 19 6 9 10 9 16 -1 5 -8 4 -15 -2 -18z
m75 -37 c13 -12 14 -20 4 -37 -30 -59 -62 -36 -38 27 11 30 13 31 34 10z m-80
-87 c9 -15 6 -22 -16 -41 -16 -12 -28 -27 -28 -33 0 -14 -36 -27 -50 -18 -12
7 -2 63 17 93 17 28 60 27 77 -1z m351 -36 c3 -5 1 -12 -5 -16 -5 -3 -10 1
-10 9 0 18 6 21 15 7z m171 2 c-3 -4 1 -14 10 -24 23 -25 13 -44 -24 -44 -22
0 -34 6 -38 17 -8 25 11 53 36 55 12 1 19 -1 16 -4z m-1061 -733 c3 -5 1 -10
-4 -10 -6 0 -11 5 -11 10 0 6 2 10 4 10 3 0 8 -4 11 -10z m-270 -950 c3 -6 -1
-7 -9 -4 -18 7 -21 14 -7 14 6 0 13 -4 16 -10z m203 -53 c2 -18 12 -32 28 -39
28 -13 28 -16 9 -42 -18 -24 -19 -36 -3 -36 21 0 58 -43 58 -67 0 -16 8 -27
25 -33 34 -13 34 -52 0 -70 -23 -12 -27 -11 -46 8 -26 29 -36 27 -83 -8 -45
-34 -53 -36 -77 -14 -12 11 -16 25 -12 47 4 24 0 37 -16 51 -29 26 -27 33 16
51 28 12 44 13 60 6 14 -7 24 -7 28 -1 4 6 -2 13 -12 17 -33 13 -56 41 -50 62
3 12 -3 29 -13 41 -23 27 -16 48 18 53 53 9 67 3 70 -26z m-654 7 c23 -9 20
-34 -3 -34 -11 0 -22 -9 -26 -20 -3 -11 -20 -35 -38 -55 l-31 -36 -67 7 c-64
6 -69 5 -113 -25 -25 -18 -46 -36 -46 -41 0 -5 -12 -22 -26 -39 -18 -21 -35
-31 -54 -31 -23 0 -27 -3 -23 -20 6 -21 7 -22 68 -24 33 -1 41 -5 43 -23 4
-28 -16 -37 -124 -53 -86 -13 -181 -51 -202 -81 -18 -26 -58 -24 -91 4 -23 19
-26 27 -19 49 6 18 14 25 24 21 10 -3 17 2 20 13 5 20 62 64 81 64 7 0 21 12
33 27 12 15 41 39 64 53 87 51 106 65 106 80 0 23 93 88 142 100 24 5 66 18
95 29 28 11 68 22 88 24 19 3 39 7 42 11 8 8 37 8 57 0z m441 -3 c6 -11 -42
-51 -61 -51 -20 0 -17 10 8 37 22 24 43 29 53 14z m-77 -93 c-2 -13 -11 -24
-21 -26 -22 -4 -35 27 -16 39 25 16 41 10 37 -13z m-130 -91 c27 1 32 -2 32
-21 0 -12 -11 -33 -25 -46 -14 -13 -30 -40 -35 -61 -7 -27 -29 -54 -75 -95
-36 -32 -65 -63 -65 -69 0 -6 -16 -26 -35 -45 -19 -19 -35 -39 -35 -45 -2 -20
-118 -105 -134 -99 -35 13 -4 -22 33 -37 50 -21 59 -53 20 -69 -32 -14 -33
-17 -19 -54 6 -18 5 -35 -5 -59 -18 -45 -45 -57 -45 -21 0 26 -1 26 -47 19
-27 -5 -56 -8 -65 -7 -23 1 -48 -35 -48 -69 0 -28 -20 -42 -45 -33 -16 7 -75
-14 -75 -25 0 -4 -14 -15 -30 -24 -17 -10 -37 -31 -45 -48 -11 -20 -39 -41
-95 -69 -47 -24 -81 -47 -85 -59 -3 -11 -20 -32 -36 -46 -35 -29 -64 -34 -55
-9 5 13 1 15 -24 12 -16 -3 -30 -2 -30 2 0 13 23 28 35 24 17 -7 28 25 15 41
-8 10 -4 21 14 41 23 28 25 28 43 11 11 -9 25 -17 31 -17 15 0 16 47 0 56 -15
10 19 34 49 34 12 0 37 13 55 28 29 25 56 44 183 129 42 28 85 80 85 103 0 11
10 20 30 24 17 3 30 12 30 19 0 19 -95 104 -110 99 -20 -7 72 78 103 94 15 8
27 23 27 34 0 10 12 28 28 39 15 11 34 27 42 34 8 8 24 16 35 19 44 11 174
103 184 130 12 33 43 50 76 42 21 -5 26 -1 35 22 6 15 8 41 4 57 -6 27 -4 28
17 21 13 -5 39 -8 57 -7z m264 -127 c-2 -14 -14 -36 -27 -50 -20 -21 -24 -34
-22 -88 2 -56 -1 -66 -21 -83 -45 -36 -82 16 -51 73 8 16 8 31 -1 61 -11 39
-11 40 31 79 30 28 49 38 68 36 21 -2 25 -7 23 -28z m228 -55 c0 -16 -17 -19
-44 -9 -22 9 -10 24 20 24 15 0 24 -6 24 -15z m-863 -42 c6 -17 -36 -38 -50
-24 -7 7 -6 15 3 26 15 18 41 17 47 -2z m-673 -18 c20 -8 36 -20 36 -26 0 -16
-68 -40 -95 -33 -25 6 -36 -11 -13 -18 7 -3 -6 -18 -30 -34 -23 -16 -86 -70
-139 -121 -94 -88 -97 -92 -85 -118 11 -23 9 -30 -10 -55 -18 -22 -31 -29 -55
-28 -22 2 -46 -8 -77 -30 -24 -18 -47 -32 -50 -32 -3 0 -6 12 -6 28 0 42 43
138 77 169 20 19 32 42 36 70 5 31 18 52 49 82 24 23 53 44 65 47 12 3 29 16
37 28 8 14 34 28 63 36 26 8 62 22 78 32 37 22 71 23 119 3z m80 -161 c21 -8
20 -44 -2 -70 -54 -64 -142 -98 -174 -66 -18 18 9 63 47 81 17 8 43 25 58 38
29 24 44 27 71 17z m-857 -152 c-24 -26 -21 -43 13 -76 17 -16 30 -33 30 -38
0 -12 -39 0 -71 23 -33 23 -48 12 -46 -31 2 -34 1 -35 -33 -35 -30 0 -35 3
-35 24 0 15 -8 27 -20 32 -11 4 -15 8 -8 8 6 1 9 9 7 19 -2 9 -1 23 4 29 11
17 121 62 151 63 23 0 23 -1 8 -18z m1593 14 c0 -3 -4 -8 -10 -11 -5 -3 -10
-1 -10 4 0 6 5 11 10 11 6 0 10 -2 10 -4z m-1362 -50 c3 -13 -1 -17 -14 -14
-11 2 -20 11 -22 22 -3 13 1 17 14 14 11 -2 20 -11 22 -22z m-492 -82 c-4 -11
1 -22 14 -31 26 -18 25 -27 -4 -41 -21 -10 -26 -8 -31 8 -8 25 -41 26 -54 1
-11 -20 0 -34 42 -56 49 -24 13 -53 -81 -62 -44 -5 -55 -10 -62 -29 -6 -16
-19 -24 -42 -26 -29 -3 -33 -6 -31 -30 1 -20 -4 -28 -23 -32 -35 -9 -44 0 -44
44 0 32 5 43 28 57 15 9 36 24 47 34 11 9 29 19 40 21 14 2 19 11 20 33 0 25
4 31 27 33 19 2 28 10 30 25 2 14 18 30 48 45 54 27 85 29 76 6z m420 -98 c11
-8 36 -16 55 -18 30 -3 34 -6 32 -30 -1 -16 2 -28 8 -28 5 0 9 -4 9 -10 0 -17
-40 -11 -47 8 -17 46 -58 43 -70 -5 -7 -30 -14 -37 -29 -35 -35 5 -44 11 -44
30 0 46 -46 48 -73 2 -15 -24 -15 -29 -2 -40 17 -14 20 -50 5 -50 -5 0 -25 9
-45 20 -20 11 -48 20 -64 20 -20 0 -34 8 -46 26 -16 25 -16 27 12 56 27 28 31
30 88 25 50 -5 67 -2 105 18 53 28 78 30 106 11z m24 -146 c0 -5 -5 -10 -11
-10 -5 0 -7 5 -4 10 3 6 8 10 11 10 2 0 4 -4 4 -10z m-100 -34 c0 -11 -19 -15
-25 -6 -3 5 1 10 9 10 9 0 16 -2 16 -4z m468 -208 c8 -68 -90 -172 -145 -152
-37 13 -53 42 -30 55 10 6 25 28 33 49 17 43 71 79 114 76 19 -1 26 -7 28 -28z
m-608 -38 c0 -6 -5 -19 -12 -29 -11 -18 -13 -18 -25 -3 -20 26 -15 42 12 42
14 0 25 -5 25 -10z m-1197 -52 c8 -12 7 -21 -3 -33 -12 -14 -16 -13 -40 10
-14 14 -33 25 -41 25 -12 0 -12 2 1 10 22 15 71 8 83 -12z m872 -224 c19 -30
10 -46 -30 -50 -19 -2 -26 3 -31 22 -7 26 10 54 31 54 7 0 20 -12 30 -26z
m913 9 c11 -22 5 -43 -12 -43 -18 0 -49 37 -41 49 10 17 43 13 53 -6z m-1083
-43 c0 -9 -11 -16 -27 -18 -21 -3 -30 -11 -39 -39 -9 -29 -9 -37 2 -44 19 -12
59 -11 59 1 0 19 48 60 70 60 40 0 10 -53 -35 -62 -28 -5 -33 -38 -6 -38 26 0
101 29 122 47 28 23 131 12 107 -13 -10 -10 -239 -64 -248 -59 -6 3 -10 -1
-10 -10 0 -18 -42 -14 -66 6 -9 7 -27 9 -51 4 -21 -4 -65 -9 -98 -10 -33 -1
-77 -9 -99 -18 -71 -31 -111 -12 -63 29 15 13 27 26 27 29 0 3 -18 5 -39 5
-70 0 -63 33 11 58 33 12 39 11 58 -8 11 -11 34 -20 53 -21 17 0 41 -4 52 -8
28 -11 77 7 73 27 -2 9 -19 20 -38 25 -19 5 -39 12 -44 17 -15 15 57 43 107
43 26 0 50 4 53 9 10 15 69 5 69 -12z m-1970 -40 c8 -13 -20 -24 -41 -16 -8 3
-12 10 -9 16 8 13 42 13 50 0z m-570 -105 c51 -50 22 -76 -70 -66 -51 5 -60 9
-63 27 -2 17 7 25 45 42 60 27 59 27 88 -3z m-712 -8 c3 -8 -3 -14 -15 -14
-16 -2 -17 1 -8 13 15 17 17 17 23 1z m947 -80 c0 -8 -11 -19 -25 -25 -52 -24
-75 -7 -33 22 28 20 58 21 58 3z m2133 -40 c28 -23 20 -37 -20 -37 -21 0 -58
-9 -82 -20 -52 -24 -59 -24 -100 -4 -41 21 -28 40 34 46 24 3 61 14 82 25 38
21 48 19 86 -10z m-2688 -61 c22 -12 40 -27 40 -33 0 -16 -71 -63 -95 -63 -13
0 -21 10 -25 33 -4 17 -14 41 -21 52 -8 11 -14 25 -14 33 0 18 63 6 115 -22z
m2370 14 c0 -9 -8 -14 -20 -12 -11 1 -42 4 -70 6 -74 5 -75 5 -75 16 0 7 30
10 83 8 65 -2 82 -6 82 -18z m-1823 -35 c0 -11 -7 -15 -71 -45 -25 -11 -53
-20 -63 -20 -36 0 -2 32 58 56 61 23 75 25 76 9z m-674 -7 c-6 -18 -28 -21
-28 -4 0 9 7 16 16 16 9 0 14 -5 12 -12z m3342 -8 c0 -5 -4 -10 -10 -10 -5 0
-10 5 -10 10 0 6 5 10 10 10 6 0 10 -4 10 -10z"/>
<path d="M8562 7949 c2 -7 10 -15 17 -17 8 -3 12 1 9 9 -2 7 -10 15 -17 17 -8
3 -12 -1 -9 -9z"/>
<path d="M8644 7697 c-21 -24 -20 -57 2 -57 8 0 14 -9 14 -20 0 -11 5 -20 10
-20 6 0 10 9 10 19 0 11 5 23 10 26 16 10 12 40 -8 58 -17 16 -20 15 -38 -6z"/>
<path d="M8859 5668 c-12 -21 -19 -48 -18 -73 2 -59 1 -62 -28 -74 -38 -16
-63 -53 -67 -100 -4 -35 -2 -40 22 -44 14 -3 35 -1 46 3 19 7 19 9 4 15 -25
10 -24 61 1 74 23 13 45 -8 35 -33 -5 -12 0 -16 20 -16 14 0 29 -1 32 -2 3 -2
7 22 7 52 2 40 9 63 26 86 21 29 22 33 8 60 -8 16 -13 42 -10 57 5 25 3 27
-26 27 -24 0 -36 -7 -52 -32z"/>
<path d="M8608 5478 c-17 -15 -31 -48 -20 -48 16 0 52 32 52 46 0 17 -11 18
-32 2z"/>
<path d="M8900 5309 c-33 -46 -36 -59 -18 -77 19 -19 26 -15 48 28 40 78 18
114 -30 49z"/>
<path d="M8729 5233 c-18 -27 -49 -64 -70 -84 -34 -33 -38 -42 -45 -110 -5
-41 -7 -78 -6 -83 2 -5 -5 -17 -15 -28 -19 -21 -41 -75 -52 -130 -5 -20 -16
-48 -25 -62 -9 -14 -16 -32 -16 -40 0 -7 -16 -37 -35 -65 -19 -28 -35 -55 -35
-60 0 -6 -18 -16 -40 -22 -39 -12 -100 -67 -100 -91 0 -6 -16 -26 -35 -45 -31
-30 -35 -40 -35 -84 0 -36 -6 -58 -20 -76 -11 -14 -20 -31 -20 -38 0 -7 -16
-27 -35 -44 -22 -19 -35 -39 -35 -55 0 -14 -7 -29 -16 -34 -23 -13 -9 -52 18
-52 12 0 30 9 42 20 12 11 38 35 59 52 21 17 50 52 64 77 15 25 37 59 50 74
13 16 23 34 23 42 0 7 16 36 35 65 39 58 42 75 19 102 -22 23 -3 48 36 48 31
0 80 49 80 80 0 10 15 29 34 44 35 26 37 32 86 206 11 41 32 104 46 140 14 35
28 82 30 104 3 22 9 45 14 51 9 11 50 124 50 137 0 21 -22 4 -51 -39z"/>
<path d="M8967 5163 c-13 -12 -7 -23 13 -23 11 0 20 7 20 15 0 15 -21 21 -33
8z"/>
<path d="M8888 5053 c-23 -27 -37 -79 -52 -199 l-14 -109 30 -65 c38 -81 37
-79 54 -56 12 17 12 22 -2 37 -25 27 -26 114 -2 189 11 36 24 70 29 76 5 6 6
41 2 77 -6 70 -17 82 -45 50z"/>
<path d="M8970 5050 c0 -5 7 -10 15 -10 8 0 15 5 15 10 0 6 -7 10 -15 10 -8 0
-15 -4 -15 -10z"/>
<path d="M8357 4853 c-9 -11 -17 -30 -17 -44 0 -29 -41 -79 -64 -79 -13 0 -15
-6 -10 -27 4 -16 12 -31 18 -35 15 -10 51 27 82 81 20 37 23 51 17 84 -8 38
-9 39 -26 20z"/>
<path d="M8200 4741 c-15 -4 -25 -14 -25 -26 0 -14 -12 -22 -48 -31 -54 -14
-67 -22 -51 -32 6 -4 16 -22 23 -39 16 -40 41 -42 72 -7 13 15 34 37 46 51 20
20 21 27 10 45 -9 16 -9 22 1 25 13 5 17 24 5 22 -5 -1 -19 -4 -33 -8z"/>
<path d="M7742 4502 c-6 -15 -17 -35 -24 -45 -11 -15 -10 -19 2 -27 13 -8 13
-11 -2 -26 -9 -9 -29 -17 -43 -18 -22 -1 -29 -8 -41 -41 -18 -52 -18 -53 9
-60 80 -23 96 -45 57 -80 -32 -29 -34 -53 -8 -75 13 -11 28 -19 35 -20 17 0
27 20 15 32 -14 14 -4 68 16 91 21 24 70 47 88 40 15 -6 30 -48 25 -73 -4 -24
-43 -60 -63 -60 -17 0 -17 -2 -2 -37 26 -61 27 -71 9 -89 -11 -12 -13 -20 -6
-27 6 -6 11 -21 11 -33 0 -39 30 -38 72 3 26 26 38 46 38 66 0 36 24 83 50 97
11 6 20 17 20 26 0 8 16 37 35 65 19 28 35 57 35 64 0 6 9 20 19 29 12 11 21
37 25 70 7 50 5 54 -28 91 -36 39 -64 46 -113 30 -19 -6 -23 -4 -23 14 0 12
-6 21 -15 21 -14 0 -19 -12 -16 -32 0 -5 -5 -8 -11 -9 -7 0 -44 -3 -81 -8 -67
-7 -68 -7 -63 15 9 33 -8 37 -22 6z m138 -462 c0 -5 -5 -10 -11 -10 -5 0 -7 5
-4 10 3 6 8 10 11 10 2 0 4 -4 4 -10z"/>
<path d="M8618 4487 c-36 -40 -48 -67 -30 -67 14 0 40 33 57 73 8 20 14 37 13
37 -2 -1 -20 -20 -40 -43z"/>
<path d="M8739 4481 c-19 -21 -43 -54 -54 -73 -14 -22 -29 -34 -48 -36 -22 -3
-27 -7 -22 -22 7 -24 -36 -88 -76 -112 -29 -18 -31 -22 -26 -61 3 -22 1 -49
-4 -58 -6 -13 -3 -30 12 -59 20 -38 41 -49 64 -32 13 8 101 188 122 247 7 21
21 47 29 56 10 11 13 26 9 38 -4 14 4 40 24 76 17 31 31 60 31 66 0 21 -30 7
-61 -30z"/>
<path d="M8350 4088 c-26 -43 -25 -48 10 -48 25 0 30 4 30 24 0 13 5 26 12 28
15 5 1 28 -18 28 -8 0 -23 -15 -34 -32z"/>
<path d="M7480 4011 c0 -31 -11 -50 -25 -45 -17 7 -23 -4 -35 -58 -5 -24 -13
-61 -18 -83 -6 -22 -13 -57 -16 -77 -5 -27 -12 -38 -24 -38 -19 0 -72 -45 -72
-60 0 -5 11 -17 25 -26 22 -14 26 -14 47 0 12 9 32 16 45 16 17 0 22 7 25 32
2 25 9 34 28 38 34 9 82 -5 102 -31 21 -25 38 -17 33 14 -7 31 -35 49 -72 45
-27 -3 -33 1 -48 30 -14 31 -14 37 0 58 8 13 15 29 15 37 0 7 16 32 36 55 28
33 35 49 32 74 -3 30 -6 33 -40 36 -32 3 -38 0 -38 -17z"/>
<path d="M8431 3816 c-10 -12 -8 -17 7 -25 22 -12 32 -6 32 21 0 21 -23 24
-39 4z"/>
<path d="M8107 3802 c-15 -9 -39 -40 -53 -68 -13 -28 -43 -68 -64 -89 -22 -22
-40 -42 -40 -47 0 -4 -20 -28 -45 -53 -43 -45 -45 -46 -93 -39 -43 5 -52 3
-80 -21 -18 -15 -32 -33 -32 -40 0 -8 -6 -18 -12 -22 -22 -14 -62 -99 -55
-117 9 -22 27 -11 27 15 0 16 7 19 45 19 39 0 52 6 90 41 25 23 45 48 45 57 0
21 47 62 99 85 27 12 79 54 133 108 84 85 100 110 78 124 -16 10 -12 35 6 35
19 0 13 24 -7 27 -8 2 -27 -5 -42 -15z"/>
<path d="M8586 3732 c-8 -7 25 -52 38 -52 6 0 17 4 25 9 12 8 12 12 3 24 -13
15 -58 28 -66 19z"/>
<path d="M7772 3714 c-27 -19 -28 -38 -2 -64 11 -11 20 -27 20 -35 0 -8 5 -15
11 -15 8 0 10 12 6 34 -3 22 0 41 9 55 27 37 -3 54 -44 25z"/>
<path d="M7639 3574 c-9 -11 -10 -20 -2 -32 16 -26 40 -26 45 0 9 46 -16 65
-43 32z"/>
<path d="M8209 3507 c-26 -23 -57 -49 -70 -58 -14 -10 -23 -25 -22 -39 3 -34
-12 -55 -63 -91 -25 -18 -52 -48 -60 -66 -9 -18 -24 -35 -34 -38 -11 -3 -22
-16 -26 -28 -3 -12 -16 -33 -29 -47 -25 -29 -71 -138 -61 -147 4 -4 16 3 28
14 20 21 22 21 56 5 l34 -17 29 35 c20 23 29 45 29 70 0 45 31 119 50 121 8 1
27 1 42 0 21 -2 32 7 56 41 38 56 132 254 132 278 0 24 -49 6 -91 -33z"/>
<path d="M7430 3103 c1 -81 0 -90 -10 -74 -7 12 -12 12 -34 -2 -14 -9 -32 -17
-41 -17 -24 0 -18 -17 9 -24 33 -8 67 -68 60 -105 -7 -32 9 -43 43 -30 23 8
27 20 37 94 3 22 7 49 8 60 2 16 -4 21 -28 23 -27 3 -31 6 -26 25 3 12 11 32
18 45 15 30 8 52 -17 52 -17 0 -20 -7 -19 -47z"/>
<path d="M8282 3128 c-14 -14 -16 -58 -2 -58 8 0 40 51 40 65 0 10 -26 5 -38
-7z"/>
<path d="M8157 2983 c-13 -13 -7 -32 8 -27 8 4 15 12 15 20 0 15 -12 19 -23 7z"/>
<path d="M7307 2964 c-14 -15 -6 -34 14 -34 14 0 19 5 17 17 -3 18 -20 27 -31
17z"/>
<path d="M7740 2905 c-6 -15 -15 -23 -24 -19 -8 3 -17 0 -21 -6 -4 -7 2 -14
14 -17 12 -3 21 -9 21 -14 0 -15 50 -10 56 6 7 18 -14 75 -27 75 -5 0 -14 -11
-19 -25z"/>
<path d="M7240 2899 c0 -24 23 -21 28 4 2 10 -3 17 -12 17 -10 0 -16 -9 -16
-21z"/>
<path d="M8063 2868 c-15 -19 -22 -45 -16 -52 11 -10 52 35 46 50 -6 17 -18
18 -30 2z"/>
<path d="M7074 2818 c-7 -11 -8 -30 -5 -84 1 -14 4 -14 17 -4 18 16 29 36 38
73 6 24 4 27 -18 27 -14 0 -28 -5 -32 -12z"/>
<path d="M7257 2742 c-38 -39 -36 -62 6 -62 82 0 135 81 57 88 -28 2 -41 -3
-63 -26z"/>
<path d="M7485 2750 c-7 -12 49 -20 60 -9 6 6 6 9 0 10 -6 0 -20 2 -33 3 -13
2 -25 -1 -27 -4z"/>
<path d="M7499 2681 c-13 -10 -44 -25 -68 -34 l-45 -15 32 -16 c30 -16 32 -15
79 14 26 16 54 30 62 30 9 1 27 7 40 14 l23 13 -32 7 c-50 10 -65 7 -91 -13z"/>
<path d="M7964 2667 c-13 -14 -51 -43 -80 -60 -81 -48 -114 -76 -129 -110 -10
-22 -29 -53 -44 -70 -28 -33 -59 -112 -48 -123 12 -13 38 7 49 36 5 17 19 35
29 41 11 5 28 29 39 52 37 78 151 180 180 162 5 -3 16 7 24 23 12 23 13 33 3
45 -9 12 -15 13 -23 4z"/>
<path d="M8000 2630 c0 -5 5 -10 10 -10 6 0 10 5 10 10 0 6 -4 10 -10 10 -5 0
-10 -4 -10 -10z"/>
<path d="M7290 2449 c-14 -5 -36 -25 -50 -44 -31 -43 -42 -47 -80 -33 -23 8
-35 7 -43 -1 -9 -9 -6 -13 11 -18 l23 -6 -22 -21 c-55 -51 -108 -71 -124 -45
-10 14 33 58 73 74 39 17 40 28 7 43 -38 18 -61 15 -103 -13 -20 -13 -57 -27
-82 -31 -28 -4 -70 -23 -111 -50 -37 -24 -100 -58 -140 -75 -41 -17 -85 -39
-99 -49 -14 -10 -36 -21 -50 -25 -14 -4 -33 -16 -44 -27 -10 -11 -42 -35 -70
-54 -28 -18 -62 -42 -76 -53 -30 -24 -68 -27 -76 -6 -10 24 -40 17 -53 -11 -9
-20 -9 -30 0 -40 9 -11 8 -14 -5 -14 -9 0 -16 -6 -16 -12 -1 -20 -81 -72 -113
-74 -37 -2 -50 -16 -49 -51 0 -18 -11 -39 -29 -58 -64 -66 -126 -142 -138
-170 -18 -42 -23 -127 -8 -137 21 -14 71 -8 102 10 44 27 134 36 157 15 16
-15 21 -15 55 0 21 9 49 19 62 23 13 3 38 19 55 35 98 89 122 109 130 109 14
0 127 60 159 83 15 12 47 39 71 59 23 20 80 53 127 73 54 23 95 48 116 70 28
31 38 35 82 35 57 0 66 9 62 62 -1 30 4 44 28 69 17 17 33 40 36 50 4 11 24
28 45 39 41 21 71 55 143 167 32 49 54 73 69 75 25 3 32 32 8 35 -8 1 -26 -3
-40 -8z m-330 -238 c0 -12 -67 -71 -83 -73 -7 0 -16 -2 -22 -2 -5 -1 -16 -5
-22 -9 -7 -5 -18 -5 -23 -2 -17 11 9 35 37 35 26 0 45 14 56 43 7 17 57 25 57
8z m-270 -155 c0 -2 -7 -6 -15 -10 -8 -3 -15 -1 -15 4 0 6 7 10 15 10 8 0 15
-2 15 -4z m-99 -38 c22 -12 39 -28 39 -35 0 -7 -18 -24 -40 -38 -21 -13 -44
-34 -50 -44 -15 -28 -131 -91 -168 -91 -33 0 -57 18 -67 51 -6 17 3 31 36 66
40 40 164 111 198 112 7 1 31 -9 52 -21z m-301 -317 c0 -13 -11 -23 -36 -31
-47 -16 -56 -4 -21 26 34 29 57 31 57 5z m-328 -133 c-9 -9 -15 -9 -24 0 -9 9
-7 12 12 12 19 0 21 -3 12 -12z"/>
<path d="M6492 2387 c-9 -11 -10 -17 -2 -22 15 -9 23 -1 18 21 -3 15 -4 16
-16 1z"/>
<path d="M6350 2290 c0 -5 5 -10 10 -10 6 0 10 5 10 10 0 6 -4 10 -10 10 -5 0
-10 -4 -10 -10z"/>
<path d="M7419 2238 c-17 -18 -43 -49 -57 -68 -33 -43 -42 -50 -66 -50 -14 0
-17 5 -12 24 8 31 -5 40 -38 25 -18 -8 -32 -29 -46 -66 -11 -30 -20 -60 -20
-67 0 -14 -56 -96 -74 -108 -6 -4 -30 -8 -53 -8 -36 0 -43 -3 -43 -20 0 -10 9
-24 20 -30 17 -9 31 -5 80 26 33 20 65 43 71 50 6 8 22 14 35 14 19 0 24 5 24
25 0 32 41 75 71 75 13 0 34 -10 47 -22 l24 -23 28 34 c22 26 27 38 20 52 -17
30 -12 70 9 76 11 3 21 17 25 35 14 68 1 75 -45 26z"/>
<path d="M5195 2219 c-4 -6 -4 -13 -1 -16 8 -8 36 5 36 17 0 13 -27 13 -35 -1z"/>
<path d="M4324 2107 c-45 -46 -55 -97 -20 -97 9 0 16 11 18 27 2 17 12 32 27
39 27 14 42 34 35 46 -9 15 -39 7 -60 -15z"/>
<path d="M3875 1896 c-11 -8 -17 -17 -14 -20 8 -8 59 8 59 19 1 16 -24 17 -45
1z"/>
<path d="M547 1812 c-16 -7 -16 -10 -5 -19 7 -5 25 -13 40 -17 15 -3 30 -15
33 -27 9 -28 49 -22 53 8 5 37 -76 74 -121 55z"/>
<path d="M7116 1801 c-18 -7 -18 -8 -2 -14 29 -11 58 -8 54 6 -6 15 -27 18
-52 8z"/>
<path d="M6975 1790 c-18 -7 -18 -8 7 -15 31 -8 58 -1 58 15 0 12 -36 12 -65
0z"/>
<path d="M6808 1736 c-15 -13 -33 -26 -40 -29 -10 -3 -10 -7 -1 -17 9 -10 17
-8 40 7 15 11 36 23 46 26 21 8 18 31 -4 34 -8 2 -26 -8 -41 -21z"/>
<path d="M6698 1732 c-34 -4 -38 -32 -5 -32 30 0 66 25 46 31 -8 3 -26 3 -41
1z"/>
<path d="M1252 1698 c-16 -16 -15 -29 2 -22 16 6 30 34 18 34 -5 0 -13 -5 -20
-12z"/>
<path d="M3555 1606 c-25 -25 -25 -56 -1 -56 24 0 56 32 56 56 0 31 -24 31
-55 0z"/>
<path d="M5537 1623 c-15 -2 -34 -15 -42 -27 -19 -29 -61 -49 -86 -41 -32 10
-21 -11 15 -30 33 -18 34 -18 70 3 21 12 50 22 65 22 34 0 49 16 49 53 -1 28
-5 30 -71 20z"/>
<path d="M2997 1603 c-31 -35 -25 -43 51 -58 23 -5 41 -2 59 10 25 17 25 17 6
37 -30 29 -94 35 -116 11z"/>
<path d="M6835 1591 c-33 -9 -73 -26 -89 -38 -16 -13 -38 -23 -50 -23 -11 0
-42 -20 -68 -44 -47 -42 -62 -76 -34 -76 8 0 21 -3 30 -6 11 -4 16 0 16 14 0
11 7 25 15 32 25 20 149 80 167 80 9 0 19 4 22 9 3 5 26 14 51 20 34 9 45 16
45 31 0 24 -21 25 -105 1z"/>
<path d="M2707 1589 c-10 -6 -31 -8 -46 -4 -22 5 -35 0 -56 -19 -16 -15 -36
-26 -46 -26 -11 0 -28 -9 -40 -21 -15 -15 -24 -18 -32 -10 -6 6 -24 11 -39 11
-20 0 -28 -5 -28 -18 0 -24 -19 -42 -45 -42 -25 0 -65 -39 -65 -63 0 -24 13
-21 41 9 19 20 31 25 55 21 36 -6 51 2 68 34 15 30 60 29 89 0 18 -17 19 -23
7 -50 -7 -17 -19 -31 -27 -31 -11 0 -14 -10 -11 -42 3 -38 1 -42 -27 -51 -16
-5 -53 -25 -82 -44 -83 -55 -113 -38 -90 50 6 22 4 29 -10 33 -10 3 -31 12
-47 20 -22 11 -32 12 -42 3 -24 -20 -16 -39 16 -39 24 0 30 -4 30 -22 0 -26
-47 -78 -71 -78 -9 0 -22 -7 -30 -16 -11 -13 -7 -20 24 -49 35 -32 49 -65 27
-65 -5 0 -10 -7 -10 -15 0 -20 40 -35 63 -23 20 10 23 34 5 41 -10 3 -9 9 3
21 18 19 129 31 173 18 l30 -8 -33 -23 c-28 -20 -36 -22 -61 -11 -35 14 -57 5
-39 -16 22 -27 119 -8 119 23 0 7 11 13 25 13 29 0 68 25 138 88 31 29 103 70
212 122 98 48 168 87 175 100 6 11 17 20 25 20 8 0 19 9 25 20 9 17 8 20 -10
20 -11 0 -46 -9 -77 -20 -34 -11 -92 -21 -138 -22 -68 -3 -90 -8 -144 -36 -54
-29 -68 -32 -88 -23 -34 16 -24 35 22 41 47 6 55 22 19 39 -23 10 -26 16 -20
43 10 51 46 78 59 44 13 -34 127 -63 127 -32 0 7 7 19 16 27 14 12 14 14 -2
26 -10 7 -27 13 -39 13 -12 0 -30 7 -41 15 -23 17 -33 18 -57 4z m48 -58 c-3
-6 -11 -8 -17 -5 -6 4 -5 9 3 15 16 10 23 4 14 -10z"/>
<path d="M6480 1535 l-25 -14 31 -1 c17 0 37 7 44 15 10 12 9 15 -6 15 -11 -1
-30 -7 -44 -15z"/>
<path d="M3540 1519 c0 -5 5 -7 10 -4 6 3 10 8 10 11 0 2 -4 4 -10 4 -5 0 -10
-5 -10 -11z"/>
<path d="M940 1488 c0 -16 19 -38 33 -38 4 0 7 10 5 22 -3 25 -38 39 -38 16z"/>
<path d="M5746 1491 c-3 -5 0 -11 8 -14 15 -6 26 1 26 15 0 11 -27 10 -34 -1z"/>
<path d="M5185 1480 c-3 -5 -1 -10 4 -10 6 0 11 5 11 10 0 6 -2 10 -4 10 -3 0
-8 -4 -11 -10z"/>
<path d="M5662 1438 c-18 -18 -14 -28 8 -28 11 0 20 6 20 14 0 21 -15 27 -28
14z"/>
<path d="M5414 1359 c-27 -17 -36 -17 -87 -7 -50 11 -59 10 -73 -4 -10 -10
-14 -23 -9 -37 9 -31 80 -31 88 0 5 19 11 21 44 16 41 -7 48 -4 77 31 24 28 5
29 -40 1z"/>
<path d="M4330 1355 c0 -24 22 -65 36 -65 16 0 20 7 29 48 6 31 6 32 -29 32
-25 0 -36 -5 -36 -15z"/>
<path d="M4570 1351 c0 -14 46 -37 93 -45 34 -6 38 -5 35 10 -4 24 -128 57
-128 35z"/>
<path d="M3401 1340 c-8 -4 -10 -13 -7 -19 9 -14 56 -15 56 -1 0 15 -35 29
-49 20z"/>
<path d="M1711 1331 c-11 -7 -11 -12 3 -27 9 -11 28 -34 42 -51 33 -42 60 -43
66 -2 4 22 0 33 -14 40 -13 7 -17 17 -13 30 6 17 1 19 -32 19 -21 0 -44 -4
-52 -9z"/>
<path d="M2360 1330 c-12 -7 -10 -11 10 -18 26 -10 60 -5 60 8 0 18 -46 25
-70 10z"/>
<path d="M3162 1333 c-15 -6 -6 -23 14 -23 8 0 14 7 14 15 0 15 -6 17 -28 8z"/>
<path d="M2900 1301 c0 -5 -9 -11 -21 -14 -33 -9 -20 -41 18 -45 24 -2 34 2
44 19 10 19 9 25 -7 36 -21 15 -34 17 -34 4z"/>
<path d="M5850 1304 c-14 -2 -40 -7 -58 -10 -42 -7 -106 -66 -89 -83 6 -6 21
-11 34 -11 14 0 23 -6 23 -15 0 -17 -32 -36 -80 -46 -19 -4 -49 -13 -67 -20
-28 -11 -39 -11 -83 5 -54 20 -83 16 -74 -9 5 -11 -6 -21 -40 -36 -31 -13 -51
-31 -62 -52 -9 -18 -44 -58 -78 -89 l-61 -57 47 -1 c26 0 69 5 96 10 38 9 54
8 76 -4 27 -13 31 -12 77 15 26 17 51 39 54 50 4 11 12 18 19 16 7 -3 19 -1
27 4 11 7 9 9 -8 9 -31 0 -29 18 5 32 15 7 37 23 49 35 12 13 28 23 34 23 7 0
-1 -15 -19 -33 -18 -18 -32 -36 -32 -40 0 -11 58 -8 65 3 3 6 13 10 21 10 8 0
51 27 95 60 97 73 148 100 191 100 26 0 43 10 77 45 27 27 39 45 30 45 -8 0
-33 9 -54 21 -40 20 -158 33 -215 23z"/>
<path d="M3186 1291 c-4 -5 -2 -12 3 -15 5 -4 12 -2 15 3 4 5 2 12 -3 15 -5 4
-12 2 -15 -3z"/>
<path d="M1353 1255 c-2 -6 1 -22 6 -36 6 -15 10 -18 10 -8 1 25 27 43 38 26
4 -8 32 -18 61 -24 51 -10 52 -10 52 13 0 13 -8 28 -19 33 -24 13 -142 10
-148 -4z"/>
<path d="M4834 1249 c-10 -17 16 -47 47 -53 17 -3 54 -6 81 -6 27 0 58 -5 68
-10 31 -17 34 7 6 44 -25 33 -25 33 -111 33 -47 0 -88 -4 -91 -8z"/>
<path d="M3944 1196 c-10 -8 -16 -17 -13 -20 7 -7 69 16 69 26 0 13 -35 9 -56
-6z"/>
<path d="M3530 1185 c-30 -17 -74 -19 -102 -4 -25 13 -68 4 -68 -16 0 -8 -5
-26 -12 -40 -13 -30 -39 -34 -31 -5 6 24 -16 35 -52 26 -16 -4 -25 -13 -25
-26 0 -26 -36 -46 -55 -30 -11 9 -11 16 3 40 13 22 14 32 5 41 -18 18 -77 2
-112 -32 -17 -16 -36 -27 -41 -24 -14 9 -120 -14 -120 -26 0 -11 56 -12 96 0
26 7 42 3 99 -25 84 -41 125 -43 220 -8 39 14 82 28 97 31 16 3 42 22 60 42
17 20 43 38 56 41 14 3 27 11 30 18 5 16 -17 15 -48 -3z"/>
<path d="M3837 1133 c-15 -15 -6 -33 17 -33 23 0 41 22 29 34 -8 8 -38 8 -46
-1z"/>
<path d="M4410 1128 c-41 -4 -95 -12 -120 -18 -25 -6 -81 -15 -125 -20 -139
-15 -251 -49 -270 -81 -4 -6 -21 -10 -39 -9 -51 3 -66 1 -66 -10 0 -6 11 -15
24 -22 21 -9 24 -17 23 -52 -2 -40 -3 -41 -41 -44 l-38 -3 6 35 c4 21 2 37 -4
41 -16 10 -40 -14 -40 -41 0 -31 -42 -53 -64 -35 -19 16 -26 61 -14 86 6 11
22 32 35 47 25 26 24 48 -2 48 -15 0 -75 -68 -75 -86 0 -7 5 -14 12 -16 18 -6
2 -37 -27 -50 -26 -12 -95 -72 -95 -82 0 -14 21 -3 61 30 40 33 44 35 56 18 7
-10 13 -26 13 -35 0 -11 19 -29 47 -45 l46 -28 -34 -11 c-65 -22 -46 -79 38
-111 37 -14 50 -15 78 -5 23 8 40 8 60 1 23 -9 30 -7 41 8 10 14 31 21 79 25
36 4 83 15 103 26 63 33 169 81 181 81 7 0 15 10 20 22 7 19 3 27 -25 45 -57
39 -124 21 -124 -33 0 -26 -19 -44 -46 -44 -12 0 -33 -9 -48 -21 -24 -19 -30
-20 -79 -8 -28 7 -59 18 -67 25 -11 9 -26 10 -55 4 -22 -5 -57 -10 -77 -10
-35 0 -38 2 -38 29 0 16 6 31 14 34 8 3 49 -1 91 -10 75 -15 145 -11 145 8 0
15 -49 30 -76 23 -23 -6 -24 -4 -19 19 4 14 2 28 -4 31 -20 12 -12 25 24 40
23 10 44 12 58 7 27 -10 107 -2 125 11 11 9 56 21 174 47 20 4 53 18 74 30 35
21 95 38 209 60 59 12 76 22 73 40 -4 18 -66 21 -198 9z"/>
<path d="M6000 1095 c-13 -14 -31 -25 -39 -26 -9 0 -11 -3 -4 -5 13 -6 68 20
78 35 13 22 -14 18 -35 -4z"/>
<path d="M5135 1096 c-54 -15 -85 -34 -85 -52 0 -36 67 -19 118 32 29 28 19
34 -33 20z"/>
<path d="M2855 1090 c-3 -5 3 -10 15 -10 12 0 18 5 15 10 -3 6 -10 10 -15 10
-5 0 -12 -4 -15 -10z"/>
<path d="M4705 1090 c-3 -5 -2 -10 4 -10 5 0 13 5 16 10 3 6 2 10 -4 10 -5 0
-13 -4 -16 -10z"/>
<path d="M3780 1060 c0 -11 5 -20 10 -20 6 0 10 9 10 20 0 11 -4 20 -10 20 -5
0 -10 -9 -10 -20z"/>
<path d="M3405 1030 c-3 -5 1 -10 9 -10 8 0 18 5 21 10 3 6 -1 10 -9 10 -8 0
-18 -4 -21 -10z"/>
<path d="M4460 990 c0 -5 5 -10 10 -10 6 0 10 5 10 10 0 6 -4 10 -10 10 -5 0
-10 -4 -10 -10z"/>
<path d="M4683 973 c-15 -6 -17 -29 -4 -38 14 -8 61 16 61 32 0 13 -32 17 -57
6z"/>
<path d="M2960 945 c0 -20 -5 -25 -23 -25 -24 0 -57 -27 -57 -47 0 -12 -33
-26 -95 -42 -52 -14 -57 -14 -80 3 -16 12 -17 16 -6 30 7 9 25 16 39 16 14 0
35 11 49 26 l23 25 -22 -8 c-13 -4 -63 -6 -113 -4 -171 8 -208 7 -212 -6 -3
-9 8 -13 35 -13 30 0 46 -7 73 -32 19 -18 33 -36 32 -40 -3 -9 33 -48 43 -48
3 0 4 6 1 14 -3 8 1 20 9 26 19 17 67 -3 89 -36 9 -14 25 -24 40 -24 13 0 27
-4 30 -10 19 -31 153 20 146 56 -9 46 -7 47 46 48 40 1 57 6 77 25 33 31 33
37 -3 44 -17 4 -30 14 -34 26 -4 17 -13 21 -46 21 -37 0 -41 -2 -41 -25z"/>
<path d="M4822 944 c3 -19 47 -27 69 -14 19 12 7 20 -36 26 -30 4 -36 1 -33
-12z"/>
<path d="M4530 925 c0 -11 -7 -14 -24 -9 -39 10 -104 -15 -155 -59 -53 -45
-62 -70 -32 -87 23 -12 135 -2 171 15 14 7 53 15 88 19 76 9 92 14 92 32 0 21
-67 30 -88 11 -9 -9 -29 -19 -44 -22 -26 -7 -28 -5 -28 23 0 19 9 39 25 53 28
28 31 39 10 39 -8 0 -15 -7 -15 -15z"/>
<path d="M4911 866 c-16 -20 10 -39 43 -30 31 7 33 19 7 34 -26 13 -36 13 -50
-4z"/>
<path d="M5455 820 c-18 -19 -17 -20 3 -20 12 0 27 -9 34 -20 15 -24 50 -26
69 -4 14 17 11 20 -43 49 -35 19 -41 19 -63 -5z"/>
<path d="M5180 765 c-36 -6 -76 -17 -89 -24 -15 -9 -41 -11 -75 -7 -40 5 -59
2 -91 -14 -21 -11 -51 -20 -65 -20 -14 0 -42 -5 -64 -11 -34 -9 -40 -8 -53 10
-16 24 -45 27 -62 7 -15 -17 -6 -23 63 -48 37 -13 52 -15 57 -6 4 6 45 15 91
19 110 10 159 19 183 35 12 8 61 17 110 20 86 6 132 24 119 45 -7 11 -41 10
-124 -6z"/>
<path d="M3466 712 c-3 -5 1 -18 9 -29 10 -15 22 -19 40 -15 31 5 44 30 24 43
-18 11 -66 12 -73 1z"/>
<path d="M4588 677 c-38 -15 -35 -27 6 -27 33 0 62 20 49 33 -8 9 -22 7 -55
-6z"/>
<path d="M4340 651 c0 -15 39 -24 68 -16 25 7 26 8 7 15 -28 12 -75 12 -75 1z"/>
<path d="M4864 615 c-19 -14 -18 -14 4 -15 13 0 22 6 22 15 0 19 -1 19 -26 0z"/>
<path d="M3790 600 c0 -5 12 -10 26 -10 14 0 23 4 19 10 -3 6 -15 10 -26 10
-10 0 -19 -4 -19 -10z"/>
<path d="M4800 590 c0 -5 5 -10 10 -10 6 0 10 5 10 10 0 6 -4 10 -10 10 -5 0
-10 -4 -10 -10z"/>
<path d="M8419 6734 c-10 -13 -10 -17 2 -25 8 -5 25 -9 39 -9 22 1 23 2 8 11
-10 5 -18 17 -18 24 0 20 -14 19 -31 -1z"/>
<path d="M7950 5940 c-12 -23 -7 -25 21 -9 11 5 17 14 14 20 -10 15 -23 11
-35 -11z"/>
</g>
</svg>
